<svg width="119" height="119" viewBox="0 0 119 119" fill="none" xmlns="http://www.w3.org/2000/svg">
<path d="M96.6875 14.875H22.3125C20.34 14.875 18.4482 15.6586 17.0534 17.0534C15.6586 18.4482 14.875 20.34 14.875 22.3125V96.6875C14.875 98.66 15.6586 100.552 17.0534 101.947C18.4482 103.341 20.34 104.125 22.3125 104.125H96.6875C98.66 104.125 100.552 103.341 101.947 101.947C103.341 100.552 104.125 98.66 104.125 96.6875V22.3125C104.125 20.34 103.341 18.4482 101.947 17.0534C100.552 15.6586 98.66 14.875 96.6875 14.875ZM85.5312 63.2188H63.2188V85.5312C63.2188 86.5175 62.827 87.4634 62.1296 88.1608C61.4322 88.8582 60.4863 89.25 59.5 89.25C58.5137 89.25 57.5678 88.8582 56.8704 88.1608C56.173 87.4634 55.7812 86.5175 55.7812 85.5312V63.2188H33.4688C32.4825 63.2188 31.5366 62.827 30.8392 62.1296C30.1418 61.4322 29.75 60.4863 29.75 59.5C29.75 58.5137 30.1418 57.5678 30.8392 56.8704C31.5366 56.173 32.4825 55.7812 33.4688 55.7812H55.7812V33.4688C55.7812 32.4825 56.173 31.5366 56.8704 30.8392C57.5678 30.1418 58.5137 29.75 59.5 29.75C60.4863 29.75 61.4322 30.1418 62.1296 30.8392C62.827 31.5366 63.2188 32.4825 63.2188 33.4688V55.7812H85.5312C86.5175 55.7812 87.4634 56.173 88.1608 56.8704C88.8582 57.5678 89.25 58.5137 89.25 59.5C89.25 60.4863 88.8582 61.4322 88.1608 62.1296C87.4634 62.827 86.5175 63.2188 85.5312 63.2188Z" fill="#C2D7FF" fill-opacity="0.55"/>
</svg>
