<svg xmlns="http://www.w3.org/2000/svg" height="48" viewBox="0 -960 960 960" width="48"><path d="M479.989-488.435q-72.745 0-118.182-45.557T316.37-652.136q0-72.588 45.399-118.074 45.399-45.486 118.144-45.486t118.351 45.459q45.606 45.46 45.606 118.22 0 72.468-45.568 118.025t-118.313 45.557ZM143.326-130v-110.625q0-41.712 20.748-71.866 20.747-30.154 53.643-45.813 68.761-32 133.04-47.381 64.278-15.38 129.086-15.38 65.267 0 128.973 16 63.706 16 132.467 46.761 33.959 15.346 54.795 45.573 20.835 30.227 20.835 72.044V-130H143.326Z"/></svg>