<svg version="1.1" id="Layer_1" xmlns="http://www.w3.org/2000/svg" xmlns:xlink="http://www.w3.org/1999/xlink" x="0px" y="0px"
	 width="100%" viewBox="0 0 621 531" enable-background="new 0 0 621 531" xml:space="preserve">
<path fill="#FEFEFE" opacity="1.000000" stroke="none" 
	d="
M1.000000,196.000000 
	C1.000000,132.000015 1.035197,68.499962 0.903274,5.000257 
	C0.896159,1.575621 1.576275,0.903807 4.999990,0.905574 
	C209.333206,1.011065 413.666473,1.011058 617.999695,0.905617 
	C621.422791,0.903850 622.096741,1.575644 622.094604,4.999814 
	C621.987000,179.333008 621.987061,353.666290 622.094543,527.999512 
	C622.096680,531.422302 621.424866,532.096252 618.000366,532.094482 
	C413.667145,531.988953 209.333862,531.989014 5.000634,532.094421 
	C1.578355,532.096191 0.900992,531.425720 0.904582,528.000488 
	C1.020404,417.500427 1.000000,307.000214 1.000000,196.000000 
z"/>
<path fill="#4888F3" opacity="1.000000" stroke="none" 
	d="
M565.875610,279.770691 
	C564.432312,305.466309 557.988708,329.825287 548.092102,353.261749 
	C529.009827,398.451599 499.093658,434.892700 458.437378,462.886902 
	C457.257599,462.893951 456.502838,462.541290 455.905792,461.943115 
	C443.831268,449.846954 431.392944,438.110901 419.715881,425.169189 
	C419.623444,424.588959 419.642303,424.350616 419.827728,423.796600 
	C423.211060,420.298706 420.732391,416.395294 421.518738,412.582397 
	C422.389618,411.424500 423.153351,411.808197 423.902313,412.161896 
	C429.002197,414.570312 432.049957,413.150116 432.613068,407.498077 
	C432.995575,403.658447 434.299866,401.660980 438.321960,401.689636 
	C440.605438,401.705902 442.462219,400.620697 443.752014,398.493835 
	C442.668396,397.728333 442.217468,398.951294 441.532959,399.201202 
	C440.220154,399.680420 438.909363,400.118683 437.918976,398.804260 
	C437.076660,397.686340 437.823822,396.637268 438.399506,395.604889 
	C439.207001,394.156799 441.594269,393.041687 439.831146,390.968597 
	C438.802734,389.759369 437.154846,389.751801 435.635773,390.151764 
	C433.386261,390.744019 432.299805,392.382507 432.325043,394.565552 
	C432.370636,398.513245 430.538239,400.174133 426.628235,400.408142 
	C422.971344,400.626984 419.927948,404.186157 415.361908,401.828644 
	C417.119629,406.100098 421.166016,407.542908 422.165588,411.546661 
	C420.871124,413.208527 419.422638,412.821899 418.045685,412.278381 
	C415.296906,411.193359 412.961304,411.828033 410.582703,413.974731 
	C410.066345,414.242157 409.839783,414.309479 409.262207,414.315399 
	C403.980865,409.087189 398.885803,404.083221 393.857971,399.012695 
	C392.582977,397.726929 391.099762,396.574158 390.653870,394.337341 
	C409.024750,383.443665 425.339844,370.515808 438.625183,353.930908 
	C449.325562,340.572906 457.620575,325.877258 463.539124,309.831573 
	C465.616241,304.200195 465.590546,304.185425 459.760468,304.183990 
	C429.815887,304.176483 399.871277,304.171967 369.461548,304.100464 
	C366.090332,297.806427 360.552032,294.010345 355.852966,289.252136 
	C356.539032,294.500671 354.547119,298.937103 353.231873,303.780853 
	C342.509644,304.088287 332.012695,304.043640 321.519958,304.232330 
	C318.576996,304.285248 317.913269,303.162201 317.920441,300.444580 
	C317.997162,271.447113 318.019806,242.449127 317.898804,213.451950 
	C317.884796,210.097260 319.325806,209.728760 322.083801,209.734726 
	C359.080353,209.814804 396.077087,209.811264 433.537537,209.904556 
	C438.274994,213.534927 441.618500,218.103851 446.926910,221.991074 
	C445.177063,215.480316 449.239838,215.944565 453.459778,216.098145 
	C452.185303,214.165482 450.608948,214.413681 449.337036,214.108414 
	C447.400818,213.643661 445.788818,212.995499 446.772491,210.216766 
	C475.305115,209.890686 503.615417,209.827240 531.925720,209.778244 
	C542.252197,209.760376 552.581604,209.914368 562.903625,209.701111 
	C566.386230,209.629166 567.451172,210.636108 567.408569,214.161560 
	C567.227234,229.149292 567.331299,244.140472 567.254456,259.598450 
	C564.373230,261.013000 563.534119,257.618500 560.795532,257.371979 
	C561.753845,260.332520 561.469360,263.100922 560.583679,266.046753 
	C559.215088,270.599121 560.660950,272.382294 566.368530,274.797699 
	C566.582336,275.815948 566.569519,276.573364 566.448608,277.695618 
	C564.366516,279.497589 562.532349,278.551727 560.718140,277.696716 
	C557.408081,276.136688 554.212708,274.331665 550.790894,273.011780 
	C549.434937,272.488739 547.971375,271.366333 546.608826,272.616974 
	C545.239380,273.873962 546.187195,275.401276 546.697021,276.784668 
	C546.984558,277.564911 547.305969,278.339325 547.724915,279.056793 
	C549.396973,281.920319 550.490417,285.094391 552.812500,288.102539 
	C552.658264,284.561157 554.160156,281.990692 556.867432,280.270813 
	C559.592651,278.539642 562.664124,279.591064 565.875610,279.770691 
z"/>
<path fill="#3DA95A" opacity="1.000000" stroke="none" 
	d="
M390.368103,394.033386 
	C396.777588,400.394623 402.853760,406.804962 409.003937,413.544434 
	C409.545197,416.945648 409.637146,420.077332 410.400238,423.410339 
	C407.937683,425.689178 406.699890,423.464844 405.213043,422.381775 
	C403.384857,421.050018 402.310364,418.704102 399.271851,418.167694 
	C400.086029,421.760010 399.160400,424.987823 398.507202,428.301178 
	C397.808807,431.843781 400.396729,434.962799 403.835663,435.519806 
	C407.378479,436.093689 409.466858,434.137360 410.947815,431.261780 
	C412.298615,428.638977 408.670746,426.824524 410.014496,423.975830 
	C413.447052,423.361298 416.431030,425.101807 419.963867,424.691925 
	C432.802673,437.348083 445.295807,449.870636 457.952454,462.687103 
	C434.099579,480.053009 407.527710,491.535461 379.110199,498.894196 
	C364.582977,502.656036 349.801666,504.978058 334.372742,505.812683 
	C329.591858,503.230835 329.591858,503.230835 327.980560,498.162903 
	C326.445251,500.491821 328.116730,503.615448 325.372986,505.373901 
	C324.804749,505.443665 324.574219,505.431244 324.037659,505.258362 
	C322.086700,502.956665 321.069702,500.179413 317.626648,499.069183 
	C317.708069,501.789429 319.900330,502.968597 320.573608,505.221924 
	C320.582336,505.798096 320.526123,506.027527 320.220673,506.508911 
	C318.274689,506.668640 316.577911,506.576447 314.469849,506.604370 
	C312.963013,507.111389 311.860168,507.308624 310.346069,506.672058 
	C284.059479,505.346222 258.730957,501.051544 234.368118,492.031311 
	C170.085571,468.231018 122.810280,425.531586 92.544861,363.578735 
	C94.082535,359.667847 97.572998,358.078918 100.470573,355.932709 
	C122.027672,339.965729 143.605545,324.026215 165.309982,308.259338 
	C166.782761,307.189453 168.126053,305.870850 170.433105,305.743042 
	C177.433548,323.872437 186.286163,340.679596 198.680984,355.545624 
	C212.611938,372.254120 229.233994,385.532440 248.808228,395.684692 
	C248.486420,401.125519 253.315186,407.683655 258.484009,408.817810 
	C259.546967,409.051086 260.643829,409.002380 261.043884,407.948486 
	C261.556152,406.598999 260.156952,406.520660 259.382629,406.001465 
	C256.681335,404.190216 252.457214,403.546173 253.860382,398.477356 
	C272.807434,406.287903 292.241089,411.130737 312.595184,411.790405 
	C339.936951,412.676575 365.737854,406.616302 390.368103,394.033386 
z"/>
<path fill="#E94E42" opacity="1.000000" stroke="none" 
	d="
M451.916107,46.734016 
	C464.055450,53.830753 474.574524,62.501831 484.908752,71.445099 
	C487.768097,73.919563 485.408295,75.072807 484.106262,76.491211 
	C469.006805,92.939781 453.872803,109.356628 438.745850,125.779922 
	C434.230499,130.682251 429.650177,135.526596 425.221252,140.505646 
	C423.675079,142.243835 422.668274,143.030365 420.504639,141.058670 
	C409.216125,130.771713 396.379639,122.777061 382.366821,115.954720 
	C382.688873,109.911308 384.258270,108.469391 391.119507,107.950714 
	C386.859589,104.704445 382.244507,103.159355 377.833771,101.315231 
	C375.792511,100.461784 374.630219,101.743904 375.067139,103.932388 
	C375.458679,105.893433 376.532532,107.597313 377.474243,109.351776 
	C378.176788,110.660606 379.782471,112.226791 376.808716,113.313980 
	C359.349823,106.936676 341.783295,102.328812 323.467743,102.201859 
	C261.339203,101.771202 214.470627,128.650162 182.302246,182.080673 
	C179.651428,182.538284 178.518280,180.647522 177.159592,179.294922 
	C162.533615,164.734314 147.658600,150.406448 133.491669,135.410034 
	C127.002007,128.540405 120.012360,122.096207 114.072914,114.291153 
	C126.609825,94.878601 142.225067,78.532623 159.866638,64.169388 
	C206.719147,26.023457 260.502594,7.039375 320.886841,7.477423 
	C361.377838,7.771158 399.604156,17.672560 435.661438,36.983608 
	C436.639648,39.255772 435.087219,40.567638 434.333008,42.158100 
	C432.475281,46.075531 434.077637,48.640232 438.383240,48.711422 
	C439.043640,48.722340 439.697083,48.621704 440.353363,48.560993 
	C442.391022,48.372498 444.836273,47.030235 446.188751,49.461891 
	C447.342773,51.536674 445.231476,53.012054 443.672943,55.245396 
	C446.667511,54.542461 447.730957,52.844013 448.723572,51.034901 
	C449.570435,49.491573 449.661774,47.454319 451.916107,46.734016 
z"/>
<path fill="#F9BF16" opacity="1.000000" stroke="none" 
	d="
M113.726028,114.132324 
	C133.887619,134.030106 153.765640,154.121307 173.652496,174.203766 
	C176.226669,176.803238 178.846588,179.357437 181.739471,182.121338 
	C173.843933,198.587769 167.590027,215.470947 164.848175,233.618042 
	C161.171738,257.950684 163.331558,281.713959 170.778290,305.443909 
	C144.886719,324.813110 118.984238,343.821411 92.756485,363.027679 
	C81.453346,341.002411 74.670685,317.482300 71.059509,293.035034 
	C68.701050,277.068542 67.701126,261.002563 68.936890,244.429718 
	C70.855568,242.319427 73.416931,242.686981 75.510666,241.675293 
	C77.191765,240.862991 79.233704,240.481079 80.334862,242.543396 
	C81.305901,244.362030 79.854530,245.603073 78.631332,246.776001 
	C78.089203,247.295853 77.214569,247.667084 77.571053,249.121811 
	C80.361206,247.824951 82.312508,246.055450 82.487358,242.941849 
	C82.603775,240.868774 81.282700,239.588486 79.400322,238.899979 
	C77.891212,238.348007 76.463318,238.801086 75.039169,239.300110 
	C73.300812,239.909256 71.552811,240.466644 69.512833,239.226898 
	C70.759766,212.195175 77.157715,186.538818 87.326408,161.796677 
	C94.230293,144.998367 102.909576,129.141098 113.726028,114.132324 
z"/>
<path fill="#EA574C" opacity="1.000000" stroke="none" 
	d="
M452.046387,46.579639 
	C449.832245,49.364090 450.199188,53.481964 446.974884,55.609047 
	C445.306702,56.709545 443.597260,57.833912 442.114624,56.234165 
	C439.923340,53.869766 443.125549,53.868954 444.039764,52.931938 
	C444.878174,52.072628 445.926025,51.123646 445.489746,50.010609 
	C444.821777,48.306541 443.306366,49.211899 442.068726,49.457794 
	C434.708344,50.920151 430.518677,48.318367 432.201050,43.193844 
	C432.845367,41.231327 434.467316,39.589756 435.792114,37.501019 
	C441.524536,39.740913 446.689911,43.013687 452.046387,46.579639 
z"/>
<path fill="#538EF5" opacity="1.000000" stroke="none" 
	d="
M566.257629,279.669067 
	C564.214661,280.042419 562.546204,281.209534 560.367310,280.759918 
	C556.986450,280.062225 553.932678,283.411621 554.551025,286.951141 
	C554.838196,288.594971 555.132812,290.128937 553.274597,290.566559 
	C551.579712,290.965698 551.395325,289.239288 550.840332,288.043121 
	C548.908142,283.878418 546.899170,279.747192 544.817993,275.654816 
	C543.962402,273.972473 543.873962,272.584412 545.331482,271.192963 
	C546.824402,269.767700 548.021606,270.373169 549.737366,271.048126 
	C555.101501,273.158386 559.778076,276.810150 565.931458,278.040344 
	C566.346619,278.493073 566.352661,278.925598 566.257629,279.669067 
z"/>
<path fill="#EA574C" opacity="1.000000" stroke="none" 
	d="
M376.711700,113.527725 
	C377.475891,112.765747 378.089203,112.067406 377.294434,110.946533 
	C376.720642,110.137283 375.587463,109.455093 375.492004,108.625542 
	C375.174011,105.861946 371.253143,103.438545 374.195221,100.478653 
	C376.930054,97.727242 379.253204,100.603142 381.646606,101.724312 
	C384.948090,103.270912 388.289703,104.732849 391.574524,106.313271 
	C392.389252,106.705246 393.800140,107.010834 393.396912,108.253471 
	C393.025330,109.398750 391.515839,110.186852 390.566437,109.799576 
	C385.077789,107.560768 384.168488,111.984581 382.219849,115.469109 
	C380.366821,115.100838 378.664642,114.436630 376.711700,113.527725 
z"/>
<path fill="#538EF5" opacity="1.000000" stroke="none" 
	d="
M446.599487,209.879333 
	C446.681305,213.405350 449.227448,212.710205 451.278564,213.137390 
	C452.822754,213.458984 455.649536,213.210724 455.352600,215.518570 
	C455.077423,217.656967 452.992798,218.247604 450.609680,217.428864 
	C448.483704,216.698486 446.027618,216.467087 448.374847,220.006561 
	C449.101044,221.101654 449.130524,222.210159 448.133942,223.157104 
	C446.949188,224.282837 445.963959,223.519470 445.168365,222.626938 
	C441.549194,218.566574 436.886078,215.475082 434.035034,210.326706 
	C435.714844,209.915100 437.428375,209.849594 439.565979,209.852676 
	C440.720428,210.795731 441.502167,211.398087 442.794830,210.179504 
	C444.071686,209.901657 445.137939,209.855957 446.599487,209.879333 
z"/>
<path fill="#538EF5" opacity="1.000000" stroke="none" 
	d="
M353.402649,304.107422 
	C352.973358,301.562714 352.825134,299.069275 353.936127,296.728912 
	C354.995972,294.496368 354.893494,292.437408 353.696777,290.142914 
	C352.628143,288.093994 353.675659,286.958130 356.037994,287.555237 
	C358.852295,288.266571 368.819366,300.363251 368.995544,303.630188 
	C367.604065,304.063629 366.211761,304.092682 364.408173,304.042053 
	C363.554626,303.484161 363.103516,303.016632 362.716095,302.487396 
	C361.875763,301.339478 361.422455,299.441589 359.743378,299.571167 
	C357.548157,299.740540 358.566162,302.322266 357.233307,303.699829 
	C355.935760,304.029022 354.868042,304.099609 353.402649,304.107422 
z"/>
<path fill="#F8C221" opacity="1.000000" stroke="none" 
	d="
M69.172607,239.393570 
	C71.651642,239.215317 73.821465,238.656952 75.982422,237.583679 
	C78.863480,236.152740 81.340256,237.550171 83.003342,239.720627 
	C84.771339,242.027969 84.592911,244.701370 82.498932,246.972458 
	C81.597771,247.949844 80.608650,248.845505 79.678825,249.797195 
	C78.020813,251.494217 76.114807,251.194122 74.901550,249.645187 
	C73.599770,247.983200 76.085495,247.817184 76.673798,246.839691 
	C76.920715,246.429428 77.399483,246.163376 77.752518,245.811386 
	C78.611389,244.955032 80.578552,244.527573 79.555283,242.835220 
	C78.715431,241.446259 77.068420,241.805450 76.036629,242.675629 
	C74.151466,244.265518 72.006180,243.957748 69.450882,244.000702 
	C69.046928,242.603119 69.062775,241.203659 69.172607,239.393570 
z"/>
<path fill="#47AD63" opacity="1.000000" stroke="none" 
	d="
M253.889191,398.080750 
	C254.062836,402.571686 257.232819,403.916626 260.502014,404.941559 
	C261.938416,405.391846 264.007538,405.323029 263.527222,407.275177 
	C263.070587,409.131073 261.543762,410.825500 259.228088,410.825470 
	C257.286926,410.825470 247.992126,402.680847 247.412811,400.886902 
	C246.832474,399.089783 246.897980,397.631989 248.819290,396.243835 
	C250.568039,396.595673 252.106705,397.246216 253.889191,398.080750 
z"/>
<path fill="#538EF5" opacity="1.000000" stroke="none" 
	d="
M566.715210,274.741943 
	C559.461365,274.680603 556.772339,270.339722 559.936584,263.762146 
	C560.887024,261.786560 561.060242,260.491730 559.508362,258.987579 
	C558.534851,258.044006 557.549927,256.961517 559.038269,255.687759 
	C560.287598,254.618546 561.479126,255.097427 562.551270,256.088409 
	C563.880310,257.316803 565.204407,258.550568 566.854248,259.924255 
	C567.121460,261.185669 567.065125,262.304779 566.887207,263.740051 
	C563.366333,266.035370 563.044556,268.178864 566.669800,270.757202 
	C566.891174,272.138123 566.863159,273.281708 566.715210,274.741943 
z"/>
<path fill="#F3F7F4" opacity="1.000000" stroke="none" 
	d="
M319.961060,507.084045 
	C320.276947,506.609863 320.582428,506.458893 321.330627,506.052460 
	C321.454803,505.637024 320.688385,505.798096 320.824524,505.463806 
	C321.371735,504.120056 322.496887,504.509979 323.249268,505.300598 
	C322.963959,505.794922 323.234985,505.907349 323.381653,505.904755 
	C323.896362,505.792542 324.264374,505.682953 324.307617,506.049042 
	C323.919617,508.281677 324.649597,509.809540 325.707245,511.072662 
	C327.010223,512.628784 326.795746,513.589050 325.081238,514.557495 
	C323.019348,515.722168 321.246338,518.179626 318.536133,515.946106 
	C316.947815,514.637146 316.501068,512.956055 317.606964,511.086456 
	C318.346893,509.835632 319.916565,509.112091 319.961060,507.084045 
z"/>
<path fill="#47AD63" opacity="1.000000" stroke="none" 
	d="
M324.363586,506.427673 
	C323.982880,506.524750 323.716461,506.237335 323.622406,506.069763 
	C326.880890,504.297699 325.832153,501.209900 326.011230,498.535767 
	C326.099823,497.212372 326.090851,495.612549 327.820221,495.539642 
	C329.385895,495.473663 329.532715,497.393768 329.447601,498.145813 
	C329.036469,501.777649 332.270569,502.853271 333.901337,505.404663 
	C333.936890,505.757538 334.018463,505.932922 334.036377,506.027954 
	C333.292664,506.714325 332.465546,506.966919 331.230591,506.437286 
	C328.874817,506.284790 326.809540,506.307678 324.363586,506.427673 
z"/>
<path fill="#F3F7F4" opacity="1.000000" stroke="none" 
	d="
M309.966248,506.848602 
	C311.068634,506.461182 312.177368,506.430328 313.672333,506.561981 
	C313.467926,509.262817 312.743378,511.759583 312.942596,514.440979 
	C313.026703,515.573853 313.542145,517.642212 311.625366,517.461487 
	C309.984406,517.306763 307.842651,517.550781 306.664337,515.854309 
	C305.596863,514.317444 307.165039,513.534973 307.916840,512.568787 
	C309.149506,510.984680 310.134674,509.318207 309.966248,506.848602 
z"/>
<path fill="#4888F3" opacity="1.000000" stroke="none" 
	d="
M357.436401,304.029419 
	C357.498993,301.719025 355.609833,298.050964 358.884064,297.571198 
	C361.977600,297.117920 363.369019,300.310547 363.993042,303.594482 
	C361.954407,304.008362 359.911865,304.054382 357.436401,304.029419 
z"/>
<path fill="#F3F7F4" opacity="1.000000" stroke="none" 
	d="
M321.928497,523.959717 
	C321.829071,525.981628 320.631317,526.933899 319.530640,527.887207 
	C318.077362,529.145935 316.930054,528.734497 317.092712,526.818787 
	C317.286316,524.538330 316.044403,522.815918 315.089020,520.371338 
	C317.959869,520.887939 320.335083,521.296753 321.928497,523.959717 
z"/>
<path fill="#F3F7F4" opacity="1.000000" stroke="none" 
	d="
M330.946838,506.681366 
	C331.771271,506.172180 332.602448,506.082520 333.743958,506.057922 
	C334.162292,506.974609 334.423340,507.686859 335.401398,507.907745 
	C336.291779,508.108856 337.744751,507.971863 337.531799,509.295441 
	C337.293671,510.775757 335.990601,511.788635 334.671021,512.446106 
	C333.440643,513.059143 333.078674,511.796722 332.471649,511.102753 
	C331.463013,509.949677 330.860992,508.662170 330.946838,506.681366 
z"/>
<path fill="#4888F3" opacity="1.000000" stroke="none" 
	d="
M567.001099,270.598267 
	C564.264526,271.469299 562.767761,270.242065 562.443787,267.691589 
	C562.130554,265.225006 563.348816,263.948242 566.320129,264.030762 
	C567.475647,266.073608 567.114441,268.146332 567.001099,270.598267 
z"/>
<path fill="#4888F3" opacity="1.000000" stroke="none" 
	d="
M442.633057,209.868790 
	C442.827759,210.941788 443.435638,212.450058 441.788910,212.563858 
	C440.739868,212.636337 440.269226,211.603348 440.023499,210.269562 
	C440.746979,209.877594 441.503845,209.833908 442.633057,209.868790 
z"/>
<path fill="#F3F7F4" opacity="1.000000" stroke="none" 
	d="
M329.536530,516.389038 
	C329.306427,515.580078 329.590942,515.289368 330.217468,515.412354 
	C330.347961,515.437988 330.523926,515.622192 330.543884,515.753723 
	C330.639771,516.387207 330.332153,516.653320 329.536530,516.389038 
z"/>
<path fill="#518CF3" opacity="1.000000" stroke="none" 
	d="
M422.305023,412.148193 
	C419.627411,409.459808 417.241638,406.938690 414.898468,404.378601 
	C414.053955,403.455963 412.567566,402.611450 413.685944,401.068451 
	C414.630005,399.765869 416.022430,399.741821 417.160583,400.781586 
	C419.133698,402.584198 420.704803,401.706726 422.417480,400.382111 
	C423.181427,399.791260 424.242004,399.114990 425.101562,399.194580 
	C429.793365,399.629364 431.583191,397.814270 431.128845,393.001862 
	C430.836121,389.901459 433.721405,388.944122 436.190063,388.527405 
	C438.547913,388.129395 440.985870,388.843262 442.250885,390.982849 
	C443.724792,393.475647 440.710175,394.169525 439.782593,395.716736 
	C439.250153,396.604828 437.518097,397.276398 438.774628,398.515747 
	C439.831940,399.558594 440.807770,398.345551 441.783600,397.742798 
	C442.999420,396.991699 443.831879,394.123352 445.557434,396.015503 
	C447.021210,397.620636 445.185547,399.321777 443.875793,400.623688 
	C443.758148,400.740662 443.654816,400.940369 443.521210,400.963165 
	C436.938568,402.087006 434.284271,406.464966 431.620392,412.355103 
	C429.240906,417.616547 427.758606,417.001984 422.305023,412.148193 
z"/>
<path fill="#518CF3" opacity="1.000000" stroke="none" 
	d="
M388.759583,272.441895 
	C390.108063,277.802643 390.796112,282.423309 385.821289,285.814789 
	C383.970917,287.076233 382.620575,287.158722 381.058167,285.568481 
	C377.578613,282.027039 374.059875,278.523682 370.526642,275.035675 
	C369.300293,273.824982 368.758423,272.696869 370.251434,271.273621 
	C371.522308,270.062134 372.420471,270.169159 373.412842,271.642151 
	C374.416779,273.132324 375.881378,273.363403 377.242523,272.160126 
	C379.857849,269.848175 382.974823,269.884491 386.820435,270.180176 
	C387.891754,270.832336 388.205139,271.358490 388.759583,272.441895 
z"/>
<path fill="#518CF3" opacity="1.000000" stroke="none" 
	d="
M477.073761,358.595764 
	C477.152863,359.964081 477.253723,360.946594 477.467773,361.903809 
	C478.466003,366.368134 475.803253,370.426239 471.207886,371.398621 
	C467.541779,372.174316 462.773834,368.730530 462.124115,364.837524 
	C461.387451,360.423431 464.783386,356.316986 469.451385,356.017365 
	C470.774841,355.932404 472.105347,355.947113 473.652710,356.844269 
	C475.605988,355.960815 476.477509,356.816467 477.073761,358.595764 
z"/>
<path fill="#518CF3" opacity="1.000000" stroke="none" 
	d="
M433.096436,229.644409 
	C433.140594,233.013550 434.903229,235.991241 432.445435,239.017731 
	C429.464264,242.688797 425.749329,243.731125 422.059174,241.400040 
	C418.577332,239.200577 417.156982,234.872787 418.797913,231.463013 
	C420.713257,227.482986 423.956696,226.475067 428.717041,228.317032 
	C429.277374,228.533829 429.954468,228.448807 430.790100,228.251465 
	C432.231750,227.584137 432.779480,228.323837 433.096436,229.644409 
z"/>
<path fill="#518CF3" opacity="1.000000" stroke="none" 
	d="
M370.480438,296.924194 
	C363.541809,293.729645 361.731567,286.634003 366.715607,283.227539 
	C369.168793,281.550842 371.816010,280.109314 374.909119,282.481110 
	C378.288269,285.072266 380.083038,288.200592 378.648956,292.368103 
	C377.430389,295.909180 374.730591,297.571930 370.480438,296.924194 
z"/>
<path fill="#538EF5" opacity="1.000000" stroke="none" 
	d="
M492.851501,350.819977 
	C491.672638,353.452576 490.358429,352.867279 488.944427,351.443756 
	C485.427887,347.903503 481.888885,344.385498 478.369812,340.847717 
	C477.230591,339.702454 476.387695,338.373566 477.784576,336.957458 
	C479.448853,335.270172 480.404694,337.070038 481.451050,337.974518 
	C482.329742,338.734070 483.093964,339.624329 483.941772,340.421692 
	C485.488922,341.876862 486.802399,342.524445 486.996124,339.480469 
	C487.097382,337.889771 486.630585,335.627075 488.888336,335.508118 
	C491.247803,335.383850 491.000092,337.660461 490.981995,339.249725 
	C490.939819,342.954193 494.310394,341.690857 496.020325,342.822266 
	C497.101440,343.537567 499.672180,342.075897 499.399597,344.464691 
	C499.172943,346.450867 497.126648,347.166046 495.099731,346.959137 
	C493.985107,346.845367 492.886047,346.579376 491.774048,346.380920 
	C490.725250,348.260895 493.152008,348.975159 492.851501,350.819977 
z"/>
<path fill="#538EF5" opacity="1.000000" stroke="none" 
	d="
M402.334503,253.890549 
	C396.505920,249.663971 396.513306,245.997940 401.939819,241.553223 
	C402.973297,240.706741 403.940247,239.509552 405.266998,240.996353 
	C406.371613,242.234207 406.025665,243.488388 404.839233,244.450836 
	C403.552338,245.494766 401.595184,246.700546 402.676575,248.303329 
	C403.800751,249.969559 405.714508,248.145111 407.190887,247.752563 
	C411.822266,246.521057 415.022644,247.761246 415.911102,251.437073 
	C416.622009,254.378250 412.938477,260.272583 410.042847,260.816376 
	C408.950256,261.021576 408.071289,260.661652 407.527496,259.687103 
	C407.027130,258.790344 407.509033,258.085846 408.172272,257.540192 
	C408.678894,257.123352 409.345734,256.898712 409.843292,256.473785 
	C410.960480,255.519638 412.532898,254.512039 411.554718,252.830856 
	C410.745697,251.440369 409.237488,252.117935 407.958221,252.506516 
	C406.227020,253.032394 404.469727,253.472244 402.334503,253.890549 
z"/>
<path fill="#538EF5" opacity="1.000000" stroke="none" 
	d="
M452.572449,376.302460 
	C456.606354,375.418823 459.278900,376.422943 459.888763,380.442871 
	C460.509064,384.531464 458.588257,387.432648 455.116943,389.402679 
	C453.829285,390.133484 452.484314,390.196594 451.621552,388.797577 
	C450.764404,387.407684 451.908264,386.728027 452.887238,386.057312 
	C454.361328,385.047455 456.625977,384.052429 455.522644,381.971344 
	C454.485535,380.015137 452.334412,381.310852 450.586090,381.613373 
	C447.326935,382.177277 443.530060,383.158600 442.240784,378.790192 
	C441.161469,375.133087 443.512115,372.464783 446.378052,370.461487 
	C447.359406,369.775513 448.685791,369.683044 449.551117,370.731415 
	C450.130066,371.432861 449.801819,372.245667 449.065765,372.881012 
	C447.668030,374.087402 444.908600,375.177795 446.764526,377.374146 
	C448.293396,379.183350 450.392639,377.072418 452.572449,376.302460 
z"/>
<path fill="#538EF5" opacity="1.000000" stroke="none" 
	d="
M387.000610,269.999390 
	C385.409271,266.500793 386.503754,263.369019 388.931274,260.923676 
	C390.704010,259.137909 393.375732,259.730469 395.582458,260.410431 
	C398.530884,261.318939 400.021423,262.895172 396.936127,265.598389 
	C395.715729,266.667664 394.684692,267.953094 393.330414,269.391876 
	C395.716156,270.533264 397.047455,269.528442 398.295135,268.119995 
	C399.085083,267.228271 399.629639,265.342712 401.271393,267.034485 
	C402.446686,268.245605 401.783691,269.409668 400.915283,270.580322 
	C397.909485,274.632355 394.060486,274.730011 389.398376,273.047546 
	C389.001221,272.998779 389.000000,273.000000 389.000610,272.999390 
	C388.200592,272.321014 387.854645,271.354248 387.195343,270.231018 
	C387.001221,269.998779 387.000000,270.000000 387.000610,269.999390 
z"/>
<path fill="#538EF5" opacity="1.000000" stroke="none" 
	d="
M462.996796,377.983765 
	C459.945740,376.135773 458.277222,373.210785 454.601929,372.407806 
	C452.134644,371.868744 452.615784,368.245331 452.286682,365.898315 
	C452.162018,365.009430 454.066742,363.876038 454.252045,364.412903 
	C455.329376,367.534302 461.070679,362.466217 460.503876,368.195343 
	C460.211182,371.153625 462.441162,372.479675 465.058502,372.954132 
	C466.652496,373.243073 469.094940,373.050934 468.475800,375.291107 
	C467.933136,377.254669 466.415863,379.720306 462.996796,377.983765 
z"/>
<path fill="#518CF3" opacity="1.000000" stroke="none" 
	d="
M410.050781,414.257141 
	C411.034119,410.030975 414.050049,410.166870 417.039856,410.594269 
	C418.473938,410.799316 419.835999,411.508240 421.613525,411.992676 
	C421.996338,411.996338 422.000000,412.000000 422.001831,412.001831 
	C422.258057,415.075287 423.420776,418.031219 423.029755,421.198395 
	C422.857269,422.595367 422.793976,423.842590 420.615234,423.976624 
	C415.767090,422.029419 413.029358,418.215302 410.050781,414.257141 
z"/>
<path fill="#538EF5" opacity="1.000000" stroke="none" 
	d="
M416.556213,237.394867 
	C415.659668,241.824127 417.973419,243.433334 421.522766,243.977417 
	C423.061005,244.213211 424.898712,244.318680 424.555756,246.313995 
	C424.264160,248.010376 422.694214,248.920227 420.812012,248.993622 
	C418.436310,249.086273 409.315002,242.198502 408.835449,239.873657 
	C408.227753,236.927475 407.328003,233.674667 412.316559,236.529770 
	C413.589752,237.258453 415.256561,235.315369 416.556213,237.394867 
z"/>
<path fill="#538EF5" opacity="1.000000" stroke="none" 
	d="
M477.385559,359.040771 
	C476.542450,357.951263 475.819763,357.230225 474.329895,357.024109 
	C474.027832,353.393097 473.404327,349.693512 476.177490,346.612579 
	C477.316071,345.347656 478.402924,344.471100 479.938202,345.686920 
	C481.491425,346.916962 480.489929,348.081268 479.478210,348.988586 
	C477.301331,350.940826 478.123352,352.891785 479.487396,354.712341 
	C481.216187,357.019806 483.036926,355.449707 484.744690,354.552277 
	C485.841553,353.975861 486.817017,352.401794 488.141449,353.905029 
	C489.675354,355.645996 487.848541,356.586243 486.895996,357.547363 
	C484.257202,360.210144 481.160553,360.631531 477.385559,359.040771 
z"/>
<path fill="#538EF5" opacity="1.000000" stroke="none" 
	d="
M433.355316,230.153076 
	C432.511536,229.411377 432.023071,228.825272 431.268677,228.119202 
	C428.936707,223.814972 429.977509,220.290161 433.279816,217.240234 
	C434.045319,216.533218 434.888184,215.883270 435.897614,216.640503 
	C437.133575,217.567780 436.824005,218.642136 435.868164,219.597931 
	C434.197906,221.268097 433.024048,223.134842 434.965668,225.216858 
	C436.876404,227.265762 439.079010,226.968811 441.167694,225.268097 
	C442.087341,224.519226 443.069427,223.658539 444.169922,224.904770 
	C445.495728,226.406052 444.130157,227.323822 443.241943,228.223282 
	C440.532654,230.966888 437.376343,231.847900 433.355316,230.153076 
z"/>
<path fill="#47AD63" opacity="1.000000" stroke="none" 
	d="
M409.768799,413.923523 
	C413.238312,417.114380 416.476349,420.320770 419.967316,423.760925 
	C420.220245,423.994659 420.229614,424.414337 420.269562,424.619934 
	C416.945435,426.881195 413.801117,426.092834 410.376038,424.042847 
	C408.968536,420.946899 406.668732,418.063141 408.915894,414.235565 
	C409.077942,413.873535 409.537323,413.939056 409.768799,413.923523 
z"/>
<path fill="#45AC62" opacity="1.000000" stroke="none" 
	d="
M229.064468,434.619324 
	C228.830948,438.712341 229.576279,442.480652 226.204163,445.594543 
	C223.446136,448.141357 221.218597,450.004944 217.452438,445.003479 
	C218.025864,450.169312 218.706390,454.047943 214.828903,456.767456 
	C212.956314,458.080811 211.092819,458.139465 209.156586,457.938904 
	C205.122162,457.521118 202.312836,453.116699 203.051743,448.667664 
	C203.891632,443.610657 206.688004,442.312286 214.618088,443.518921 
	C214.098907,440.325684 211.202057,439.183685 209.581848,437.117065 
	C208.630981,435.904236 207.424576,434.800903 208.571808,433.200226 
	C209.683792,431.648682 211.113739,431.843170 212.450394,432.975525 
	C214.041061,434.323059 215.405258,433.997711 216.846222,432.671997 
	C219.641205,430.100525 222.509979,430.384583 225.674683,432.833588 
	C227.456711,432.389679 228.393661,433.070465 229.064468,434.619324 
z"/>
<path fill="#47AD63" opacity="1.000000" stroke="none" 
	d="
M142.185654,346.268005 
	C140.762238,342.568329 142.139908,339.618042 143.841476,336.805420 
	C144.692673,335.398468 145.958313,334.776337 147.633560,335.853149 
	C149.516647,337.063629 148.397156,338.040985 147.476013,339.008667 
	C145.495483,341.089325 145.434616,343.139648 147.630981,345.032166 
	C150.127380,347.183167 151.400543,344.787659 153.028580,343.505646 
	C155.853806,341.280853 154.318344,339.695618 152.469284,337.925201 
	C150.325623,335.872742 148.140121,333.806580 146.365845,331.450378 
	C145.501984,330.303192 143.190567,328.812073 145.659729,326.895325 
	C147.731949,325.286713 148.701553,327.194763 149.719238,328.293579 
	C151.066330,329.748047 152.143494,331.452545 153.234741,332.913208 
	C154.411148,332.032806 154.771896,331.905304 154.863052,331.672302 
	C155.667831,329.615082 153.595352,325.985168 156.270462,325.528992 
	C159.313431,325.010162 158.337204,328.859528 159.287643,330.730988 
	C160.259872,332.645355 162.522659,332.681183 164.472778,333.013885 
	C165.592590,333.204926 167.637054,332.290436 167.423187,334.462799 
	C167.271988,335.998718 165.752502,336.948120 164.097214,336.933533 
	C162.649551,336.920807 161.204300,336.632629 159.657410,336.454529 
	C158.845566,338.497894 162.717621,340.495758 160.015701,342.175629 
	C155.267380,345.127716 152.922256,353.582092 144.395828,349.045013 
	C142.764801,348.632965 142.335587,347.736145 142.185654,346.268005 
z"/>
<path fill="#45AC62" opacity="1.000000" stroke="none" 
	d="
M410.000610,423.999390 
	C410.098938,424.486053 410.023438,425.175720 410.320557,425.430054 
	C414.328979,428.861053 413.042938,431.990936 409.869934,435.060852 
	C407.016205,437.821838 403.773041,437.665833 400.728180,435.770691 
	C396.971649,433.432617 396.044342,429.828613 397.696472,425.778076 
	C398.545074,423.697662 399.512817,421.897095 397.593811,419.857361 
	C396.707214,418.914978 396.932526,417.636597 397.964142,416.744598 
	C399.217316,415.660980 400.374847,416.105438 401.526611,417.050446 
	C404.206879,419.249634 405.981232,422.472321 409.655945,423.966217 
	C410.001221,423.998779 410.000000,424.000000 410.000610,423.999390 
z"/>
<path fill="#45AC62" opacity="1.000000" stroke="none" 
	d="
M192.691315,448.697021 
	C194.879913,447.675659 195.703278,449.263367 196.713623,450.241974 
	C199.462433,452.904449 202.216797,455.569244 204.816132,458.374664 
	C206.173004,459.839111 209.040741,461.065247 207.478470,463.587738 
	C205.793228,466.308807 203.968658,469.259857 199.835114,469.063873 
	C197.064407,468.932526 194.642960,468.998444 193.331345,465.813171 
	C192.009689,462.603516 191.029053,459.517090 193.144653,456.380829 
	C194.345169,454.601166 193.808823,453.322479 192.507843,451.990265 
	C191.562439,451.022156 190.462067,449.971344 192.691315,448.697021 
z"/>
<path fill="#47AD63" opacity="1.000000" stroke="none" 
	d="
M393.341187,445.561218 
	C393.270111,446.558838 393.277008,447.227966 393.450470,447.850769 
	C393.846222,449.271606 394.712921,450.903595 392.785889,451.712372 
	C390.642242,452.612000 389.801849,450.814972 389.163940,449.289185 
	C387.308624,444.851624 385.616241,440.332275 382.854523,436.352722 
	C381.788483,434.816559 382.565063,433.881897 383.582336,432.947357 
	C384.509949,432.095123 385.238068,430.788910 386.926514,431.575409 
	C391.403748,433.660950 395.916840,435.669373 400.407318,437.726654 
	C401.809113,438.368835 403.256866,439.144592 402.774139,441.014465 
	C402.257233,443.016388 400.849823,442.763550 399.223450,442.240112 
	C396.425354,441.339478 394.993011,443.416412 393.341187,445.561218 
z"/>
<path fill="#45AC62" opacity="1.000000" stroke="none" 
	d="
M141.777725,346.255890 
	C142.590561,346.810730 143.174438,347.620392 143.878494,348.712708 
	C144.689209,352.016907 146.190521,355.216736 144.174561,358.055206 
	C142.235123,360.785889 139.597244,363.137634 135.769501,361.321320 
	C131.840836,359.457062 129.313629,356.333557 130.129379,351.859619 
	C130.832809,348.001648 133.924484,346.257843 137.734238,346.052917 
	C138.993881,345.985138 140.276596,346.345917 141.777725,346.255890 
z"/>
<path fill="#47AD63" opacity="1.000000" stroke="none" 
	d="
M237.005692,411.962646 
	C235.093582,406.932220 238.161789,404.591614 241.418076,402.432831 
	C242.538315,401.690155 243.715561,402.079468 244.413986,403.239655 
	C245.083694,404.352112 244.352325,405.116272 243.484589,405.697784 
	C242.255325,406.521576 240.407349,407.294861 241.418304,409.044891 
	C242.534714,410.977448 244.417206,409.769012 245.846710,409.132263 
	C249.537598,407.488312 252.701309,407.626587 254.648361,411.627350 
	C256.102661,414.615631 253.437943,419.764923 249.817062,421.512207 
	C248.169662,422.307190 246.632050,421.785675 245.810486,420.585602 
	C244.661255,418.906891 246.312988,418.385864 247.575806,417.991760 
	C249.597961,417.360718 251.040009,415.650879 250.386612,413.977539 
	C249.616791,412.006104 247.545441,413.317932 246.092285,413.871490 
	C242.780243,415.133148 239.649612,415.660736 237.005692,411.962646 
z"/>
<path fill="#47AD63" opacity="1.000000" stroke="none" 
	d="
M126.253479,367.767700 
	C128.960083,372.606659 126.676910,378.212738 121.960014,379.521637 
	C120.619751,379.893616 119.471970,379.556549 118.835991,378.649963 
	C117.661476,376.975708 119.653091,376.938049 120.397659,376.313171 
	C121.152161,375.679901 122.075851,375.244507 122.812065,374.594116 
	C123.572746,373.922180 124.173294,373.036957 123.659203,371.961700 
	C123.116165,370.825958 122.024895,370.978790 121.056465,371.172913 
	C119.599091,371.465057 118.044708,371.632080 116.745552,372.280853 
	C113.947174,373.678223 112.238205,372.205048 110.874313,370.204559 
	C109.456841,368.125549 109.534035,365.815063 110.929909,363.676392 
	C111.376396,362.992340 111.967247,362.310028 112.653961,361.894409 
	C114.106270,361.015228 115.020248,357.642059 117.306297,360.175903 
	C119.077309,362.138916 117.041084,363.343323 115.442261,364.354736 
	C114.358902,365.040100 113.640770,366.123260 114.476624,367.276855 
	C115.260063,368.358154 116.539040,367.913910 117.700668,367.632751 
	C120.438049,366.970184 123.170135,364.514740 126.253479,367.767700 
z"/>
<path fill="#47AD63" opacity="1.000000" stroke="none" 
	d="
M229.372986,435.035095 
	C228.187668,434.406891 227.378479,433.823975 226.286774,433.121094 
	C226.292770,430.572479 224.492630,428.443420 225.476761,425.745300 
	C226.529343,422.859558 228.146591,421.329590 231.075623,421.028961 
	C233.139374,420.817139 235.093338,421.047974 236.339935,422.982941 
	C237.890732,425.390137 235.759277,426.525116 234.542145,427.976685 
	C234.038956,428.576813 233.604340,429.234467 232.907211,430.179535 
	C235.126831,430.977997 236.329620,429.846405 237.566208,428.944061 
	C238.450272,428.298889 239.295319,427.962585 240.181000,428.888092 
	C241.082184,429.829803 240.684341,430.704193 239.960983,431.489563 
	C237.197739,434.489868 234.376007,437.364532 229.372986,435.035095 
z"/>
<path fill="#47AD63" opacity="1.000000" stroke="none" 
	d="
M124.428436,363.305450 
	C119.921410,362.364197 121.076126,358.618988 120.242767,356.037476 
	C120.022415,355.354858 121.571274,354.232361 121.655258,354.401154 
	C123.042747,357.190216 129.426666,352.307739 128.478378,359.026245 
	C128.194321,361.038788 130.746918,363.037231 133.044037,363.608887 
	C134.300217,363.921509 136.103409,362.588806 136.633331,364.784546 
	C136.946060,366.080292 135.635040,366.754303 134.885178,367.596466 
	C133.587524,369.053833 132.035278,369.349854 130.477325,368.180603 
	C128.505859,366.701080 126.665298,365.047119 124.428436,363.305450 
z"/>
<path fill="#47AD63" opacity="1.000000" stroke="none" 
	d="
M323.251221,505.420654 
	C322.631866,505.811432 322.299774,505.827942 321.870483,505.820709 
	C318.960571,505.361572 318.195770,502.518463 316.231506,501.092316 
	C315.160126,500.314484 315.210846,499.490051 315.989105,498.606049 
	C316.766357,497.723206 317.880707,496.555481 318.878021,497.655457 
	C320.834869,499.813690 324.685486,500.910004 323.251221,505.420654 
z"/>
<path fill="#E9554B" opacity="1.000000" stroke="none" 
	d="
M206.893585,114.446075 
	C209.516968,122.817184 205.890244,126.567871 196.040863,125.631317 
	C200.137192,130.481796 196.763336,133.376205 193.436401,135.874100 
	C190.888016,137.787476 187.895325,137.700989 185.178772,135.661041 
	C181.356339,132.790665 181.000229,128.879868 182.814209,125.046440 
	C183.824524,122.911346 183.853302,121.395164 182.801849,119.550255 
	C182.290802,118.653549 181.965302,117.731766 182.856842,116.837662 
	C183.988831,115.702484 185.014160,116.540474 186.015717,117.033081 
	C188.786179,118.395676 190.139694,121.681366 193.767258,123.037514 
	C192.676300,117.989067 191.939423,113.450363 197.151093,110.962921 
	C201.281250,108.991676 204.030960,111.424797 206.893585,114.446075 
z"/>
<path fill="#EA574C" opacity="1.000000" stroke="none" 
	d="
M215.318863,94.484711 
	C216.161163,93.013908 216.839310,91.876305 217.569946,90.773468 
	C219.794907,87.415016 222.807739,87.129303 225.634003,89.522652 
	C228.763519,92.172775 226.170761,94.050293 224.164154,95.905319 
	C223.513611,96.506721 222.402817,97.013878 222.662094,98.355446 
	C224.643066,99.772247 225.960052,98.416382 227.327393,97.203201 
	C228.211456,96.418823 229.287354,95.485283 230.350296,96.553780 
	C231.659897,97.870255 230.371689,98.919197 229.554657,99.941460 
	C226.600784,103.637344 222.977371,104.523239 218.180298,101.921356 
	C219.589050,107.053543 218.817352,110.969818 215.312088,114.256844 
	C213.361710,116.085785 211.811264,116.428078 209.842026,114.375130 
	C206.506271,110.897568 203.032547,107.552742 199.647949,104.121422 
	C198.864853,103.327507 197.707870,102.508049 198.612427,101.175827 
	C199.528946,99.826019 200.887024,99.723091 202.066467,100.710213 
	C204.295532,102.575783 206.181030,102.038666 208.313660,100.455177 
	C210.816971,98.596466 213.512695,98.121284 216.046219,101.535980 
	C217.027390,98.486008 214.019867,96.971802 215.318863,94.484711 
z"/>
<path fill="#E9554B" opacity="1.000000" stroke="none" 
	d="
M401.852600,95.387711 
	C404.665131,99.657257 401.165314,101.372879 398.976654,103.296585 
	C396.522003,105.454109 393.402679,105.863853 390.764313,103.757423 
	C388.282013,101.775581 386.586914,99.029800 387.307434,95.571739 
	C387.940002,92.535751 391.424072,89.641823 387.452332,86.443497 
	C386.814911,85.930199 387.583282,84.850403 388.354034,84.467575 
	C390.175812,83.562698 391.571869,84.587616 392.740875,85.780998 
	C395.743317,88.846199 398.656372,91.998955 401.852600,95.387711 
z"/>
<path fill="#E9554B" opacity="1.000000" stroke="none" 
	d="
M423.822937,69.758484 
	C424.063538,74.596230 424.761505,79.282326 420.082916,82.539825 
	C418.365875,83.735344 417.356262,83.935585 415.897522,82.429367 
	C412.436676,78.855896 408.877411,75.377892 405.368866,71.850426 
	C404.234161,70.709587 403.427185,69.424278 404.765259,67.959518 
	C406.114807,66.482208 407.165863,67.660988 408.076569,68.600685 
	C409.375153,69.940536 410.449249,69.902725 411.889771,68.668152 
	C414.962189,66.034966 418.184021,66.244774 421.669006,68.831940 
	C422.622314,68.949432 423.159851,69.159126 423.822937,69.758484 
z"/>
<path fill="#E9554B" opacity="1.000000" stroke="none" 
	d="
M262.144135,59.635635 
	C261.999939,61.314877 261.967102,62.639641 262.007629,63.962154 
	C262.141388,68.324585 260.299438,70.859734 255.698944,71.010063 
	C250.882950,71.167435 247.925125,68.788933 247.162933,64.044281 
	C246.616913,60.645405 249.400101,56.866581 253.200180,56.153984 
	C254.803482,55.853329 256.497772,56.037834 258.579620,56.001545 
	C261.505341,55.690220 261.913879,57.468510 262.144135,59.635635 
z"/>
<path fill="#E9554B" opacity="1.000000" stroke="none" 
	d="
M400.755371,91.245621 
	C397.837433,88.112556 397.090942,84.996292 399.279144,81.528175 
	C400.907043,78.948036 403.129730,77.373016 406.306122,78.071815 
	C409.742676,78.827866 412.249237,80.697716 413.235962,84.318550 
	C414.146210,87.658852 412.710968,90.030983 410.354919,92.079346 
	C407.081604,94.925240 404.010742,93.784019 400.755371,91.245621 
z"/>
<path fill="#EA574C" opacity="1.000000" stroke="none" 
	d="
M183.866241,142.272476 
	C179.553543,140.466187 178.841599,143.522400 178.073761,146.163315 
	C177.715515,147.395462 178.066055,148.817841 177.902451,150.129959 
	C177.833923,150.679581 177.378250,151.399261 176.899216,151.632965 
	C175.963196,152.089645 175.424515,151.407272 175.054138,150.566116 
	C172.845566,145.550430 170.135483,140.776611 167.765869,135.860214 
	C166.373169,132.970596 169.413101,131.744202 171.844513,132.104858 
	C177.849930,132.995682 182.475464,137.252304 188.052994,139.277206 
	C188.787170,139.543762 188.770554,140.394547 188.339203,140.964767 
	C187.292542,142.348465 186.107147,143.525024 183.866241,142.272476 
z"/>
<path fill="#EA574C" opacity="1.000000" stroke="none" 
	d="
M265.721069,43.221611 
	C264.882568,42.381126 264.290741,41.800720 263.713928,41.205734 
	C262.528900,39.983433 261.152100,38.612793 262.788666,36.983646 
	C264.691772,35.089172 265.602905,37.418411 266.779175,38.308186 
	C267.433990,38.803482 267.946503,39.482643 268.556061,40.043121 
	C269.266541,40.696426 269.884949,41.752090 270.970764,41.516571 
	C272.261841,41.236542 271.906342,39.973713 271.994202,39.040665 
	C272.129608,37.602127 271.825531,35.561443 273.828766,35.598507 
	C275.696259,35.633064 274.824585,37.696827 275.102051,38.845123 
	C275.733521,41.458569 277.448792,41.941864 279.873016,42.137466 
	C281.537415,42.271755 284.603058,41.987545 284.322266,44.591324 
	C284.052979,47.088306 281.623383,46.579422 279.511841,46.153072 
	C277.271240,45.700645 275.072998,45.948811 277.433441,49.123878 
	C278.219757,50.181530 278.090454,51.399727 277.041840,52.237766 
	C275.526581,53.448738 274.626587,52.081020 273.722565,51.197990 
	C271.114075,48.650124 268.553772,46.052914 265.721069,43.221611 
z"/>
<path fill="#EA574C" opacity="1.000000" stroke="none" 
	d="
M227.258774,74.744354 
	C228.761063,72.940353 230.096985,71.465660 231.500580,70.058472 
	C232.253754,69.303368 233.154205,68.906082 234.103714,69.813507 
	C235.030182,70.698898 234.760025,71.574081 234.028549,72.418076 
	C233.702560,72.794228 233.300385,73.115753 233.029160,73.525810 
	C232.240524,74.718140 230.677200,75.977585 231.705383,77.402153 
	C232.678223,78.750015 234.210754,77.439919 235.330032,76.987701 
	C239.186386,75.429634 242.854858,75.368866 244.564285,79.643860 
	C246.189362,83.707878 243.092499,86.431549 240.274704,88.786224 
	C239.363373,89.547760 237.938644,90.506714 236.761505,89.018028 
	C235.552429,87.488983 236.917587,86.602058 237.872223,85.749184 
	C239.172379,84.587593 241.533630,83.579338 240.204559,81.585136 
	C239.148514,80.000641 237.148315,81.557724 235.622025,81.984909 
	C229.809814,83.611664 227.035156,81.387688 227.258774,74.744354 
z"/>
<path fill="#EA574C" opacity="1.000000" stroke="none" 
	d="
M424.388702,70.046432 
	C423.442078,69.829735 422.889008,69.660576 422.169250,69.247299 
	C421.447021,64.891350 419.197693,60.494804 424.248260,57.413063 
	C427.003387,55.731945 429.352173,55.453674 431.713318,58.168072 
	C434.134125,60.951141 431.173279,61.795738 430.140411,63.380497 
	C429.501831,64.360283 427.395447,65.086472 428.808289,66.498871 
	C430.028839,67.719017 431.203003,66.259651 432.092804,65.318138 
	C433.159851,64.189087 433.911407,61.974964 435.916504,63.702938 
	C437.981445,65.482513 435.612549,66.482430 434.833496,67.737549 
	C432.263947,71.877342 428.640289,71.474976 424.388702,70.046432 
z"/>
<path fill="#EA574C" opacity="1.000000" stroke="none" 
	d="
M241.325455,64.909744 
	C243.806519,65.178642 245.986801,64.754059 245.512039,68.440315 
	C245.159744,71.175797 247.575134,72.728325 250.309265,72.966484 
	C252.097198,73.122223 253.209457,73.665108 252.857788,75.665176 
	C252.536469,77.492538 251.199127,77.956139 249.566330,77.988411 
	C246.635361,78.046333 237.916489,70.652199 237.376602,67.735855 
	C236.771454,64.466911 238.129196,63.793568 241.325455,64.909744 
z"/>
<path fill="#EA574C" opacity="1.000000" stroke="none" 
	d="
M262.433807,59.993286 
	C261.193542,58.755173 260.387909,57.519215 259.295410,56.142265 
	C259.403320,52.841518 257.809021,49.306545 260.849213,46.642426 
	C262.001068,45.633057 263.134979,44.427792 264.728760,45.521099 
	C266.638367,46.831062 265.400787,48.049232 264.345795,49.163292 
	C262.747040,50.851543 262.498810,52.612926 264.035522,54.470745 
	C265.709930,56.495064 267.303253,55.956844 269.173767,54.569988 
	C270.357452,53.692379 272.061554,52.108139 273.395447,54.263908 
	C274.476532,56.011112 272.434296,56.775497 271.608948,57.880733 
	C269.285889,60.991650 265.896210,59.758583 262.433807,59.993286 
z"/>
<path fill="#F8C221" opacity="1.000000" stroke="none" 
	d="
M111.424393,213.652527 
	C112.165604,218.732819 109.912979,221.187653 105.148262,220.968506 
	C102.342461,220.839478 100.930290,221.501404 100.919189,224.760193 
	C100.901680,229.896225 97.646790,233.339569 93.806755,232.962341 
	C88.561806,232.447067 85.422531,228.580307 86.013100,223.362534 
	C86.484261,219.199677 90.112839,216.645935 94.991020,217.560501 
	C99.103119,218.331436 97.969604,215.433655 97.938293,213.639984 
	C97.860649,209.192078 99.217911,206.167801 104.840858,206.250076 
	C106.158562,208.095932 105.324875,209.346680 104.542686,210.615555 
	C103.836823,211.760605 103.119476,213.001770 104.130432,214.245407 
	C105.438858,215.855042 106.780304,214.755325 108.048561,214.037003 
	C108.923058,213.541672 109.815918,213.171906 111.424393,213.652527 
z"/>
<path fill="#F8C221" opacity="1.000000" stroke="none" 
	d="
M104.998421,205.998871 
	C103.660973,204.315811 102.247635,202.687943 101.021057,200.929764 
	C100.382828,200.014908 99.712723,198.867706 100.901894,197.795929 
	C102.141571,196.678635 103.330009,197.007904 104.451614,198.003204 
	C104.949066,198.444626 105.363525,198.991318 105.896690,199.378708 
	C107.970924,200.885834 110.891891,206.659729 111.143478,198.374405 
	C111.173882,197.373245 111.757965,196.360199 113.020348,196.563812 
	C114.098495,196.737701 114.067001,197.818634 113.957283,198.571579 
	C113.346443,202.763565 116.030487,203.590729 119.269142,203.996414 
	C120.596703,204.162689 122.680367,203.347809 122.727516,205.682571 
	C122.766335,207.605026 121.105133,207.980164 119.506950,207.980225 
	C117.487984,207.980301 115.990555,207.929184 116.700500,210.960327 
	C117.364746,213.796341 114.892097,213.977890 112.394409,213.999451 
	C112.000916,214.001114 112.000000,214.000000 111.999542,213.999451 
	C110.097977,211.251556 106.945862,209.604156 105.213791,206.262634 
	C105.002266,206.003036 105.000000,206.000000 104.998421,205.998871 
z"/>
<path fill="#F8C221" opacity="1.000000" stroke="none" 
	d="
M88.062088,239.943756 
	C84.326416,236.267746 78.443756,235.352570 76.759789,229.781143 
	C75.945778,227.087952 75.588448,225.522644 79.420250,226.575638 
	C81.790413,227.226974 85.692375,224.979340 84.562309,230.534119 
	C84.304108,231.803314 86.505112,233.456390 88.420151,233.914505 
	C89.748795,234.232346 91.723206,233.530960 91.871712,235.774307 
	C92.026970,238.119537 90.592804,239.380859 88.062088,239.943756 
z"/>
<path fill="#4888F3" opacity="1.000000" stroke="none" 
	d="
M387.005646,270.352783 
	C388.045959,270.458130 388.769775,271.182526 388.974915,272.677856 
	C387.533936,272.932892 386.968811,272.083221 387.005646,270.352783 
z"/>
<path fill="#F9BF16" opacity="1.000000" stroke="none" 
	d="
M104.995621,206.378265 
	C107.551453,208.204193 111.127716,209.428833 111.964935,213.644531 
	C110.441727,213.884003 109.099411,214.288300 108.005150,215.481918 
	C106.582718,217.033447 105.037926,217.509033 103.358055,215.807251 
	C101.723145,214.151077 101.497253,212.374359 103.018051,210.556717 
	C103.968460,209.420761 105.111862,208.428009 104.995621,206.378265 
z"/>
</svg>