<svg version="1.1" id="Layer_1" xmlns="http://www.w3.org/2000/svg" xmlns:xlink="http://www.w3.org/1999/xlink" x="0px" y="0px"
	 width="100%" viewBox="0 0 512 512" enable-background="new 0 0 512 512" xml:space="preserve">
<path fill="#000000" opacity="1.000000" stroke="none" 
	d="
M288.778503,1.307230 
	C362.261658,1.000000 435.523407,1.035820 508.784790,0.894920 
	C512.473450,0.887826 513.097412,1.757346 513.091553,5.276858 
	C512.970032,78.205315 513.000000,151.134018 513.000000,224.531342 
	C509.761017,226.198944 509.134888,223.743408 508.880859,221.656052 
	C507.478119,210.129227 505.375427,211.314377 495.374420,211.310806 
	C421.874695,211.284653 348.374969,211.293839 274.875244,211.299347 
	C264.316101,211.300140 264.302887,211.313736 264.299896,221.860077 
	C264.292542,247.859970 264.278961,273.859863 264.307892,299.859772 
	C264.317078,308.104340 264.893677,308.686249 273.108246,308.692139 
	C309.608093,308.718414 346.107971,308.700958 382.607819,308.703888 
	C385.107788,308.704071 387.608002,308.685333 390.107697,308.723877 
	C399.600128,308.870300 401.489777,311.429169 397.563782,319.892456 
	C384.099548,348.917389 364.003235,372.122070 336.048889,388.827789 
	C318.641388,399.731140 300.023712,406.095032 280.225281,409.129456 
	C246.906723,414.236115 215.177414,408.960510 185.482147,393.206482 
	C153.043030,375.996765 129.432907,350.359497 115.056824,316.406738 
	C114.402954,314.862427 114.134018,313.219238 113.272766,311.333405 
	C107.911873,299.489777 105.548889,287.251251 104.010551,274.908539 
	C101.221268,252.529068 103.744446,230.581436 110.759659,208.738007 
	C115.767006,194.850525 121.804115,181.958069 130.114578,170.152695 
	C155.422089,134.202271 189.620636,112.169029 232.996582,105.041946 
	C268.381744,99.227829 301.811340,105.675011 333.004211,123.324509 
	C336.673767,125.400803 339.276672,124.413902 342.000427,122.129555 
	C353.210968,112.727638 364.646912,103.600845 375.938171,94.298737 
	C388.255310,84.151482 400.648041,74.096794 412.961029,63.944641 
	C417.191071,60.456951 417.278320,59.454430 412.932098,56.084148 
	C379.675934,30.295456 342.223724,13.951893 300.876495,6.449939 
	C297.942993,5.917693 294.947174,5.659979 292.016296,5.046787 
	C290.133881,4.652947 288.408600,4.069486 288.778503,1.307230 
z"/>
<path fill="#518EF8" opacity="1.000000" stroke="none" 
	d="
M333.721954,388.318848 
	C344.745667,380.510315 355.794098,373.160950 364.893829,363.499939 
	C378.505798,349.048492 389.897095,333.074188 397.272461,314.415833 
	C399.091156,309.814819 396.054047,311.036713 394.069275,311.033081 
	C367.411774,310.984131 340.754120,311.000214 314.096527,311.000183 
	C298.101959,311.000153 282.106628,310.917786 266.113525,311.069794 
	C262.936859,311.100006 261.907471,310.353821 261.921753,306.994080 
	C262.054749,275.671997 262.052795,244.348846 261.923798,213.026703 
	C261.910126,209.703522 262.884003,208.929092 266.092041,208.932541 
	C345.731506,209.018417 425.371185,209.039978 505.010498,208.892975 
	C509.447876,208.884781 509.372253,211.429443 510.043701,214.298264 
	C510.922028,218.051071 510.138794,222.129990 512.644287,225.309479 
	C513.000000,246.020889 513.000000,267.041779 513.000000,288.531342 
	C511.102020,293.567261 512.027893,298.459747 511.370300,303.171509 
	C508.637329,322.752411 502.463409,341.324554 494.815399,359.450897 
	C484.248260,384.495789 469.727539,407.141846 451.822174,427.474548 
	C442.830597,437.685089 433.180359,447.408417 422.541809,456.024902 
	C421.212860,457.101288 419.786835,457.876923 417.693420,458.062195 
	C410.312775,455.359528 405.392975,449.740875 399.776550,445.183380 
	C381.875854,430.657776 364.146790,415.920197 346.200989,401.447235 
	C342.845673,398.741180 339.522614,395.981171 336.244080,393.174011 
	C334.818756,391.953613 333.490051,390.742676 333.721954,388.318848 
z"/>
<path fill="#F14336" opacity="1.000000" stroke="none" 
	d="
M288.531342,1.000000 
	C288.149963,2.927490 289.711517,2.852421 290.753418,2.961569 
	C321.309082,6.162589 349.788605,16.044281 376.929810,30.027832 
	C392.190216,37.890202 406.156250,47.806450 419.723755,58.282360 
	C421.373810,59.556419 421.107635,60.616367 419.597839,61.829563 
	C402.639221,75.457199 385.673767,89.076683 368.770752,102.773109 
	C359.226379,110.506874 349.656433,118.221107 340.399689,126.290237 
	C337.787628,128.567169 336.023987,127.758011 333.896118,126.413109 
	C324.046326,120.187592 313.354156,115.687225 302.324432,112.273773 
	C290.784607,108.702477 278.906555,106.753433 266.729889,105.789177 
	C246.237778,104.166435 226.666290,107.375679 207.411346,113.868721 
	C188.597900,120.212875 172.095123,130.329773 157.050568,143.293304 
	C140.849762,157.253159 128.833771,174.159393 119.482834,193.134766 
	C117.195168,197.777008 115.660454,202.790283 113.467850,207.823608 
	C108.155998,208.272308 105.485779,204.263046 102.282227,201.644272 
	C78.594376,182.280457 55.098343,162.682007 31.221432,143.548691 
	C30.170208,142.706314 29.380812,141.626999 28.230362,140.386032 
	C27.149050,137.390823 28.405832,135.187912 29.604307,132.983810 
	C44.075188,106.370743 62.846500,83.067261 85.460411,63.086353 
	C119.828979,32.719421 159.552765,12.609226 204.659073,3.521082 
	C211.169281,2.209387 217.887894,2.694462 224.710785,1.241114 
	C246.020889,1.000000 267.041779,1.000000 288.531342,1.000000 
z"/>
<path fill="#28B446" opacity="1.000000" stroke="none" 
	d="
M333.498291,387.998322 
	C351.127960,402.246063 368.396210,416.519623 385.682159,430.771729 
	C396.057556,439.326202 406.460449,447.847321 417.023987,456.679199 
	C418.058411,459.856537 416.035767,461.187347 414.180420,462.630035 
	C399.145874,474.320343 382.993866,484.221405 365.685089,492.120453 
	C347.324280,500.499573 328.308472,506.966675 308.371826,510.572449 
	C302.146210,511.698456 295.793060,511.228668 289.303284,512.756104 
	C267.979095,513.000000 246.958206,513.000000 225.468658,513.000000 
	C220.427734,511.156738 215.542694,511.992615 210.834610,511.340942 
	C190.918274,508.584167 172.061646,502.241669 153.646774,494.388672 
	C131.918533,485.122711 111.989761,472.863373 93.790596,457.882660 
	C68.911171,437.402985 48.038261,413.434387 32.134502,385.296997 
	C31.006968,383.302094 29.633522,381.309021 29.955095,378.432922 
	C36.089157,370.160614 44.583942,364.994873 52.054768,358.709442 
	C69.737625,343.832520 87.814384,329.426697 105.721489,314.817871 
	C108.194603,312.800232 110.329201,309.823242 114.514145,310.381348 
	C119.174858,319.715546 123.179077,329.010742 128.742172,337.614380 
	C137.671356,351.423828 147.940826,363.969055 160.812897,374.222137 
	C176.608078,386.803619 193.952408,396.584717 213.475891,402.190826 
	C224.379288,405.321747 235.431427,407.228729 246.808319,408.155304 
	C275.712219,410.509277 302.508606,403.850830 328.080017,390.961914 
	C329.820923,390.084442 331.458649,389.002136 333.498291,387.998322 
z"/>
<path fill="#FBBB00" opacity="1.000000" stroke="none" 
	d="
M114.868355,310.185913 
	C99.359825,323.069336 83.865868,335.581024 68.405380,348.133911 
	C56.160278,358.076141 43.956284,368.069031 31.415684,378.175568 
	C27.779829,378.671722 26.975164,375.996429 25.879568,373.843018 
	C16.548922,355.503540 9.719959,336.263580 4.830999,316.277283 
	C2.680584,307.486237 2.746142,298.496368 1.247064,289.318298 
	C1.000000,267.979095 1.000000,246.958206 1.000000,225.468658 
	C2.866931,220.435837 2.014463,215.555908 2.642262,210.847519 
	C5.252274,191.272873 11.493883,172.759811 19.114058,154.657867 
	C20.722633,150.836639 22.209106,146.953629 24.261881,143.327621 
	C25.250572,141.581207 26.112642,139.751373 28.752413,139.318542 
	C41.812599,148.578674 53.544247,158.944855 65.680405,168.807205 
	C81.438637,181.612961 97.077820,194.565231 112.962189,207.734314 
	C110.842728,217.259415 107.944984,226.361969 106.963737,235.918564 
	C105.895264,246.324615 104.710518,256.586334 105.741814,267.206207 
	C106.865128,278.773651 108.783432,290.045959 111.993088,301.151672 
	C112.839500,304.080261 113.922821,306.940369 114.868355,310.185913 
z"/>
<path fill="#000000" opacity="1.000000" stroke="none" 
	d="
M289.468658,513.000000 
	C288.469238,510.698639 290.247162,511.157898 291.431030,511.022705 
	C312.048584,508.667664 331.917725,503.282410 351.212280,495.821320 
	C374.634186,486.764191 395.963165,473.967804 415.826599,458.672729 
	C416.216888,458.372223 416.517151,457.954865 417.028198,457.283508 
	C421.174255,455.484009 423.979614,452.199982 426.781189,449.449158 
	C437.164062,439.254272 447.757629,429.277679 456.910980,417.815338 
	C469.993988,401.431976 481.111084,383.894440 489.900970,364.956360 
	C498.858795,345.656555 505.305206,325.489960 509.198059,304.480804 
	C510.191498,299.119507 509.762848,293.430206 512.645874,288.679993 
	C513.000000,362.261658 512.964172,435.523407 513.105042,508.784790 
	C513.112183,512.473450 512.242676,513.097412 508.723145,513.091553 
	C435.794708,512.970032 362.865967,513.000000 289.468658,513.000000 
z"/>
<path fill="#000000" opacity="1.000000" stroke="none" 
	d="
M29.118622,139.051147 
	C21.124611,153.310501 15.828459,168.394806 11.036223,183.664612 
	C7.542166,194.797958 5.499366,206.289474 3.102229,217.691284 
	C2.544102,220.345993 4.288022,223.412155 1.335112,225.340714 
	C1.000000,151.738327 1.035824,78.476570 0.894913,5.215164 
	C0.887818,1.526426 1.757458,0.902602 5.276886,0.908466 
	C78.205330,1.029966 151.134033,1.000000 224.531342,1.000000 
	C225.624283,3.160862 223.977554,2.854159 222.802032,2.984627 
	C198.677155,5.662209 175.729385,12.549134 153.495255,22.119463 
	C131.774185,31.468958 111.846283,43.850422 93.779121,58.927418 
	C69.244247,79.401711 48.625877,103.372757 33.129250,131.511154 
	C31.796091,133.931870 30.429199,136.334015 29.118622,139.051147 
z"/>
<path fill="#000000" opacity="1.000000" stroke="none" 
	d="
M1.000000,289.468658 
	C3.238703,287.957886 2.860569,289.815918 2.971347,290.881348 
	C6.183294,321.773376 16.396572,350.450287 30.774813,378.113770 
	C37.742249,391.894226 46.504864,404.104279 55.599117,416.097900 
	C63.835415,426.960052 73.582428,436.437134 83.395378,445.803101 
	C97.588402,459.349670 113.555603,470.522797 130.575668,480.287903 
	C152.649734,492.952698 176.178085,501.729675 200.904770,507.432373 
	C208.088776,509.089203 215.330353,510.516357 222.713928,511.012238 
	C223.709961,511.079193 224.738037,511.039642 225.115234,512.588745 
	C151.738327,513.000000 78.476593,512.964172 5.215190,513.105103 
	C1.526532,513.112183 0.902595,512.242676 0.908459,508.723145 
	C1.029969,435.794708 1.000000,362.865967 1.000000,289.468658 
z"/>
</svg>