<svg xmlns="http://www.w3.org/2000/svg" height="48" viewBox="0 -960 960 960" width="48"><path d="M479.933-275.913q-85.111 0-144.565-59.455-59.455-59.454-59.455-144.565 0-85.11 59.455-145.132 59.454-60.022 144.565-60.022 85.11 0 145.132 60.022 60.022 60.022 60.022 145.132 0 85.111-60.022 144.565-60.022 59.455-145.132 59.455ZM70-441.848q-15.636 0-26.894-11.303-11.258-11.304-11.258-27.007 0-15.703 11.258-27.349Q54.364-519.152 70-519.152h100q16.061 0 27.607 11.596 11.545 11.596 11.545 27.731 0 15.711-11.545 26.844-11.546 11.133-27.607 11.133H70Zm720 0q-15.636 0-26.894-11.303-11.258-11.304-11.258-27.007 0-15.703 11.258-27.349 11.258-11.645 26.894-11.645h100q16.061 0 27.607 11.596 11.545 11.596 11.545 27.731 0 15.711-11.545 26.844-11.546 11.133-27.607 11.133H790Zm-310.175-310q-15.711 0-26.844-11.258-11.133-11.258-11.133-26.894v-100q0-16.061 11.303-27.607 11.304-11.545 27.007-11.545 15.703 0 27.349 11.545 11.645 11.546 11.645 27.607v100q0 15.636-11.596 26.894t-27.731 11.258Zm0 720q-15.711 0-26.844-11.258Q441.848-54.364 441.848-70v-100q0-16.061 11.303-27.607 11.304-11.545 27.007-11.545 15.703 0 27.349 11.545 11.645 11.546 11.645 27.607v100q0 15.636-11.596 26.894t-27.731 11.258Zm-245.26-640.478-57-56q-11.717-11.239-11.847-27.419-.129-16.179 11.744-27.793 10.375-10.614 26.435-10.614t28.538 10.717l56.239 57q10.717 11.842 10.717 27.569 0 15.727-10.669 25.849-10.409 12.169-27.044 12.408-16.635.239-27.113-11.717Zm494 494.761-56.239-57q-11.717-10.478-11.337-26.06.381-15.582 11.837-27.81 9.978-10.717 25.854-10.842 15.877-.125 27.755 10.842l57 55.761q10.717 12.239 10.846 28.419.13 16.179-10.743 26.793-11.809 11.614-27.652 11.614-15.843 0-27.321-11.717Zm-56.048-494.713q-11.669-10.92-11.669-26.799 0-15.88 11.717-27.358l55.761-57q11.239-10.717 27.419-10.846 16.179-.13 27.793 10.743 10.614 11.809 10.614 27.652 0 15.843-10.717 27.321l-57 56.239q-11.478 11.717-27.251 11.717-15.772 0-26.667-11.669ZM177.462-177.462q-11.614-10.375-11.614-26.435t11.717-28.538l57-56.239q10.278-10.717 25.835-10.837 15.557-.119 27.252 10.837 11.5 11.478 11.5 27.554 0 16.077-10.717 26.555l-55.761 57q-12.239 11.717-28.419 11.847-16.179.129-26.793-11.744Z"/></svg>